<svg aria-hidden="true" style="position: absolute; width: 0; height: 0; overflow: hidden;" version="1.1" xmlns="http://www.w3.org/2000/svg" xmlns:xlink="http://www.w3.org/1999/xlink">
<defs>
<symbol id="icon-telegram" viewBox="0 0 28 20">
<path d="M10.839 13.155l-0.422 5.537c0.604 0 0.865-0.242 1.178-0.532l2.829-2.524 5.863 4.007c1.075 0.559 1.833 0.265 2.123-0.923l3.848-16.83 0.001-0.001c0.341-1.484-0.575-2.064-1.623-1.7l-22.621 8.083c-1.544 0.559-1.52 1.363-0.262 1.726l5.783 1.679 13.434-7.845c0.632-0.391 1.207-0.175 0.734 0.216l-10.866 9.106z"></path>
</symbol>
<symbol id="icon-home" viewBox="0 0 22 20">
<path d="M21.408 9.758c0.374-0.412 0.338-1.043-0.081-1.41l-9.233-8.079c-0.419-0.366-1.091-0.359-1.501 0.017l-9.264 8.492c-0.41 0.376-0.43 1.007-0.045 1.408l0.232 0.242c0.385 0.401 1.008 0.449 1.39 0.106l0.692-0.62v9.077c0 0.557 0.451 1.008 1.008 1.008h3.611c0.557 0 1.008-0.451 1.008-1.008v-6.35h4.606v6.35c-0.008 0.557 0.39 1.008 0.947 1.008h3.827c0.557 0 1.008-0.451 1.008-1.008v-8.949c0 0 0.191 0.168 0.427 0.375s0.73 0.041 1.104-0.371l0.262-0.288z"></path>
</symbol>
<symbol id="icon-github" viewBox="0 0 20 20">
<path d="M10 0c-5.493 0-10 4.507-10 10 0 4.687 3.289 8.945 7.656 10v-3.308c-0.433 0.095-0.831 0.098-1.272-0.032-0.591-0.174-1.071-0.568-1.428-1.168-0.227-0.383-0.63-0.799-1.050-0.768l-0.103-1.167c0.908-0.078 1.694 0.553 2.161 1.337 0.207 0.348 0.446 0.553 0.752 0.643 0.296 0.087 0.614 0.045 0.984-0.085 0.093-0.741 0.432-1.018 0.689-1.409v-0.001c-2.605-0.388-3.643-1.77-4.055-2.861-0.546-1.448-0.253-3.257 0.712-4.401 0.019-0.022 0.053-0.081 0.040-0.121-0.443-1.337 0.097-2.443 0.117-2.561 0.511 0.151 0.594-0.152 2.219 0.835l0.281 0.169c0.117 0.070 0.081 0.030 0.198 0.021 0.679-0.184 1.394-0.286 2.099-0.295 0.71 0.009 1.421 0.111 2.128 0.303l0.091 0.009c-0.008-0.001 0.025-0.006 0.079-0.038 2.030-1.23 1.957-0.828 2.502-1.005 0.020 0.117 0.552 1.242 0.114 2.562-0.059 0.182 1.76 1.848 0.752 4.522-0.412 1.091-1.45 2.473-4.055 2.862v0.001c0.334 0.509 0.735 0.78 0.733 1.829v4.13c4.367-1.055 7.656-5.313 7.656-10 0-5.493-4.507-10-10-10v0z"></path>
</symbol>
<symbol id="icon-facebook" viewBox="0 0 10 20">
<path d="M8.84 9.982h-2.521v9.291h-3.82v-9.291h-1.817v-3.265h1.817v-2.113c0-1.511 0.714-3.877 3.854-3.877l2.829 0.012v3.169h-2.053c-0.337 0-0.81 0.169-0.81 0.89v1.922h2.855l-0.334 3.262z"></path>
</symbol>
<symbol id="icon-ellipse-white" viewBox="0 0 20 20">
<path fill="#fff" style="fill: var(--color1, #fff)" d="M20 10c0 5.523-4.477 10-10 10s-10-4.477-10-10c0-5.523 4.477-10 10-10s10 4.477 10 10z"></path>
</symbol>
<symbol id="icon-ellipse-pink" viewBox="0 0 20 20">
<path fill="#ffa5ba" style="fill: var(--color3, #ffa5ba)" d="M20 10c0 5.523-4.477 10-10 10s-10-4.477-10-10c0-5.523 4.477-10 10-10s10 4.477 10 10z"></path>
</symbol>
<symbol id="icon-button-arrow" viewBox="0 0 16 20">
<path fill="none" stroke="#d41443" style="stroke: var(--color2, #d41443)" stroke-linejoin="round" stroke-linecap="round" stroke-miterlimit="4" stroke-width="4" d="M3.233 2l8.855 8-8.855 8"></path>
</symbol>
</defs>
</svg>
